<?xml version="1.0" encoding="UTF-8"?>
<svg xmlns="http://www.w3.org/2000/svg" width="72" height="64" viewBox="0 0 72 64" fill="none">
  <path d="M35.7608 53.8973C47.9715 53.8973 57.8702 44.0938 57.8702 32.0006C57.8702 19.9075 47.9715 10.104 35.7608 10.104C23.5502 10.104 13.6515 19.9075 13.6515 32.0006C13.6515 44.0938 23.5502 53.8973 35.7608 53.8973Z" stroke="#BED46E" stroke-width="1.5" stroke-miterlimit="10"></path>
  <path d="M35.7608 62.9999C53.0478 62.9999 67.0616 49.1208 67.0616 32.0002C67.0616 14.8795 53.0478 1.00049 35.7608 1.00049C18.4738 1.00049 4.45996 14.8795 4.45996 32.0002C4.45996 49.1208 18.4738 62.9999 35.7608 62.9999Z" stroke="#BED46E" stroke-width="1.5" stroke-miterlimit="10"></path>
  <path d="M43.7225 18.304C43.2159 16.6731 42.2007 15.2431 40.8225 14.2191C39.4444 13.195 37.7742 12.6296 36.0515 12.6039C34.3288 12.5783 32.6422 13.0936 31.2336 14.0761C29.825 15.0586 28.7667 16.4577 28.2108 18.0727C26.1615 19.166 24.3775 20.6885 22.9828 22.5342C21.5882 24.3799 20.6165 26.5044 20.1353 28.7599H21.4731C22.3315 25.0693 24.6075 21.855 27.8187 19.7985C27.786 20.0907 27.7691 20.3843 27.7681 20.6783C27.7915 22.8057 28.6613 24.8382 30.1886 26.3344C31.716 27.8305 33.7775 28.6697 35.9258 28.6697C38.074 28.6697 40.1356 27.8305 41.6629 26.3344C43.1902 24.8382 44.06 22.8057 44.0835 20.6783C44.0835 20.4576 44.0679 20.2408 44.0504 20.0249C47.0837 22.0902 49.2244 25.2072 50.0496 28.7599H51.3865C50.9212 26.5821 49.9984 24.5256 48.678 22.7242C47.3576 20.9227 45.6692 19.4167 43.7225 18.304ZM34.532 25.0722L30.5886 20.6811L32.4509 18.9978L34.424 21.2757L39.4104 16.1128L41.259 17.8414L34.532 25.0722Z" fill="#BED46E"></path>
  <path d="M63.0025 29.1616H8.15625C3.65168 29.1616 0 32.7782 0 37.2394C0 41.7006 3.65168 45.3172 8.15625 45.3172H63.0025C67.5071 45.3172 71.1588 41.7006 71.1588 37.2394C71.1588 32.7782 67.5071 29.1616 63.0025 29.1616Z" fill="#0C534C"></path>
  <path d="M62.912 31.8374H33.2156V42.6412H62.912C66.1607 42.6412 68.7945 40.2226 68.7945 37.2393C68.7945 34.2522 66.1607 31.8374 62.912 31.8374Z" fill="white"></path>
  <path d="M10.2627 42.8086H8.6311V31.4941H10.2627V42.8086Z" fill="#BED46E"></path>
  <path d="M12.303 32.8066L13.6252 31.498H18.2954L19.6147 32.8066V34.569H17.9811V32.9483H13.9346V36.1792H18.2934L19.6147 37.4887V41.4982L18.2934 42.8087H13.6233L12.301 41.5001V39.5729H13.9327V41.3517H17.9811V37.6361H13.6252L12.303 36.3266V32.8066Z" fill="#BED46E"></path>
  <path d="M21.4098 32.8066L22.732 31.498H27.4022L28.7225 32.8066V41.504L27.4002 42.8087H22.7301L21.4078 41.5001L21.4098 32.8066ZM27.0899 32.9521H23.0404V41.3585H27.0879L27.0899 32.9521Z" fill="#BED46E"></path>
  <path d="M37.1969 40.1012H39.0942V34.4825H37.1969V33.5103H40.1868V40.1012H42.085V41.0744H37.1969V40.1012Z" fill="#0C534C"></path>
  <path d="M47.0267 41.0744H45.936V37.6161H43.023L42.1395 36.7412V33.5103H43.2302V36.6439H45.5322L45.8377 36.9464H45.935V33.5103H47.0257L47.0267 41.0744Z" fill="#0C534C"></path>
  <path d="M48.1173 34.3852L48.993 33.5103H52.122L53.0054 34.3852V40.1985L52.122 41.0744H48.99L48.1144 40.1985L48.1173 34.3852ZM49.2128 37.9409L51.9069 35.2717V34.4825H49.2128V37.9409ZM51.9069 36.6439L49.2128 39.313V40.1012H51.9069V36.6439Z" fill="#0C534C"></path>
  <path d="M54.0962 34.3852L54.9718 33.5103H58.1028L58.9872 34.3852V40.1985L58.1028 41.0744H54.9689L54.0933 40.1985L54.0962 34.3852ZM55.1869 37.9409L57.8819 35.2717V34.4825H55.1869V37.9409ZM57.8819 36.6439L55.1869 39.313V40.1012H57.8819V36.6439Z" fill="#0C534C"></path>
  <path d="M60.074 40.1012H61.9732V34.4825H60.074V33.5103H63.0639V40.1012H64.9621V41.0744H60.074V40.1012Z" fill="#0C534C"></path>
  <path d="M17.8002 11.8652C17.8401 11.5887 17.8624 11.4499 17.9111 11.1714C18.4949 10.6164 18.7974 10.3533 19.4133 9.85227C19.6955 9.83974 19.8356 9.83492 20.1138 9.83203L20.4641 10.2753C20.254 10.4381 20.1498 10.522 19.9436 10.6916L19.6108 10.2936C19.0884 10.7234 18.8325 10.9479 18.3324 11.4171C19.0777 12.1976 19.4513 12.5879 20.1975 13.3674C20.6441 12.9483 20.8728 12.7479 21.3407 12.3634L20.9749 11.9259C21.1695 11.7669 21.2668 11.6889 21.4614 11.5357L21.8447 12.0175C21.7941 12.269 21.7708 12.3952 21.728 12.6467C21.1977 13.0784 20.9389 13.3048 20.4359 13.7818C20.1771 13.7962 20.0467 13.8049 19.784 13.828L17.8002 11.8652Z" fill="#0C534C"></path>
  <path d="M23.0239 11.1116C23.6427 10.6924 23.9589 10.4968 24.6021 10.1326L24.8346 10.5373C24.0659 10.9596 23.3285 11.4355 22.6279 11.9615L20.4602 9.05044C21.2753 8.43881 22.133 7.88497 23.0268 7.39307L23.2594 7.79777C22.5803 8.17356 21.9226 8.58596 21.2892 9.0331L21.8866 9.88106C22.4813 9.46302 23.0984 9.07702 23.7352 8.72475L23.9687 9.12849C23.3436 9.47244 22.7379 9.84976 22.1541 10.2588L22.9237 11.3525L22.9675 11.3216C22.9899 11.2397 23.0006 11.1973 23.0239 11.1116Z" fill="#0C534C"></path>
  <path d="M26.9196 7.15969C26.8486 7.28688 26.8136 7.35241 26.7445 7.4796L26.7717 7.54609C26.9118 7.59234 26.9819 7.61643 27.12 7.66461C27.3594 8.26396 27.4781 8.5646 27.7165 9.16492C27.5024 9.24779 27.3964 9.29115 27.1833 9.3798C26.9235 8.77081 26.7941 8.46632 26.5324 7.85733C25.9661 8.09437 25.6869 8.22253 25.1333 8.49715L25.8824 9.9753C25.6742 10.0784 25.5721 10.1314 25.3668 10.2393C24.6779 8.96353 24.3345 8.32563 23.6456 7.04888C24.3684 6.65736 25.1133 6.30732 25.8766 6.00049C26.1422 6.07179 26.2736 6.10938 26.5333 6.18839L26.9196 7.15969ZM26.3495 7.4295C26.186 7.04888 26.1053 6.85809 25.9418 6.47747C25.3405 6.72993 25.0428 6.8629 24.4561 7.1568C24.6692 7.57885 24.7752 7.78891 24.9893 8.21L25.0399 8.18495C25.0768 8.10208 25.0963 8.06065 25.1372 7.97778C25.6159 7.74459 25.862 7.63474 26.3485 7.4295H26.3495Z" fill="#0C534C"></path>
  <path d="M27.0403 6.04698C26.9751 5.87257 26.943 5.78488 26.8768 5.61047C27.8053 5.25885 28.7572 4.97101 29.7256 4.74902L29.8375 5.20095C29.3968 5.30694 29.1779 5.36476 28.741 5.49003C29.0991 6.7003 29.2781 7.30543 29.6351 8.5157C29.4153 8.57833 29.3063 8.61206 29.0884 8.68047L28.1154 5.67889C27.6834 5.81668 27.4684 5.88992 27.0403 6.04698Z" fill="#0C534C"></path>
  <path d="M31.6219 8.04256C31.3982 8.08592 31.2873 8.10905 31.0644 8.15723C30.7482 6.74556 30.5887 6.03732 30.2725 4.62663C30.5313 4.56977 30.6616 4.54376 30.9204 4.49365C31.2007 5.90917 31.3417 6.61933 31.6219 8.04256Z" fill="#0C534C"></path>
  <path d="M32.6892 4.67848L32.4888 4.55803L32.4314 4.56574C32.4956 5.03308 32.5287 5.26627 32.5929 5.73361C33.2902 5.63332 33.9923 5.56899 34.6964 5.54089C34.7061 5.72686 34.711 5.81937 34.7198 6.00534C34.029 6.03448 33.3402 6.09881 32.6561 6.19806C32.7476 6.8533 32.7923 7.18092 32.8828 7.83616C32.6581 7.86603 32.5462 7.88338 32.3214 7.91903C32.087 6.49099 31.9692 5.77697 31.7377 4.34893C32.7094 4.18218 33.6914 4.08045 34.677 4.04443C34.6867 4.23041 34.6906 4.32387 34.7003 4.50888C33.8918 4.54357 33.489 4.57826 32.6892 4.67848Z" fill="#0C534C"></path>
  <path d="M36.0382 7.62841C35.8115 7.62841 35.6976 7.62841 35.4709 7.63323C35.4417 6.18784 35.4262 5.46322 35.397 4.01687C35.6606 4.01205 35.792 4.01109 36.0566 4.01205C36.0489 5.45841 36.0459 6.18206 36.0382 7.62841Z" fill="#0C534C"></path>
  <path d="M36.8641 4.44733C37.0801 4.28737 37.19 4.20836 37.4128 4.05322C38.1659 4.09562 38.5425 4.13031 39.2916 4.22667C39.4862 4.41939 39.5757 4.51575 39.7586 4.71424C39.7246 4.93683 39.708 5.04765 39.674 5.27024C39.422 5.23362 39.2965 5.21628 39.0445 5.18448C39.0698 4.9802 39.0834 4.87709 39.1087 4.67281C38.4705 4.5938 38.1504 4.56392 37.5092 4.52442C37.442 5.59786 37.4119 6.13362 37.3418 7.20609C37.9149 7.24175 38.2009 7.26776 38.7721 7.3381C38.8003 7.11262 38.8149 6.99988 38.8431 6.7744C39.0785 6.80331 39.1963 6.81969 39.4317 6.85438L39.3344 7.46241C39.1233 7.6002 39.0202 7.67054 38.8158 7.81315C38.1708 7.73029 37.8429 7.70042 37.1998 7.6638C37.0266 7.4865 36.938 7.39881 36.7571 7.2244L36.8641 4.44733Z" fill="#0C534C"></path>
  <path d="M42.3195 8.54642C42.1006 8.48186 41.9907 8.45006 41.7698 8.39225L42.1716 6.92084C41.5879 6.76474 41.296 6.69633 40.7005 6.5778L40.394 8.07137C40.1712 8.02705 40.0594 8.00585 39.8356 7.96634C40.0126 6.97769 40.1002 6.48337 40.2773 5.49376C40.6665 5.10833 40.8611 4.92525 41.2785 4.55908C41.797 4.66604 42.0568 4.72675 42.5686 4.85972C42.7729 5.37043 42.8673 5.63059 43.0424 6.13937L42.3195 8.54642ZM40.7949 6.12203C41.3981 6.24344 41.6978 6.31475 42.2932 6.47181C42.3341 6.32438 42.3545 6.25018 42.3905 6.10275C42.2582 5.7443 42.1882 5.56507 42.0403 5.20854C41.8583 5.16422 41.7669 5.14302 41.584 5.10158C41.2921 5.35597 41.1481 5.48702 40.8679 5.74719C40.8455 5.89751 40.8251 5.97267 40.7949 6.12203Z" fill="#0C534C"></path>
  <path d="M43.9268 5.69324C44.1807 5.59688 44.3102 5.55448 44.5699 5.4668C45.2899 5.71733 45.646 5.85223 46.3495 6.15962C46.4818 6.39859 46.544 6.51904 46.6686 6.75994L46.4312 7.2716C46.1957 7.16368 46.078 7.11165 45.8406 7.01143L46.0469 6.53638C45.4466 6.28103 45.143 6.16251 44.531 5.94667C44.1662 6.9594 43.9832 7.46529 43.6184 8.47706C44.1662 8.66978 44.4376 8.77577 44.9737 9.0051C45.0652 8.796 45.1099 8.69097 45.2014 8.48284C45.4232 8.5792 45.5331 8.62545 45.753 8.72663L45.4923 9.28455C45.249 9.35778 45.1274 9.39536 44.8891 9.47727C44.2839 9.21517 43.9774 9.09665 43.3586 8.88176C43.2389 8.66303 43.1776 8.55318 43.0511 8.33637L43.9268 5.69324Z" fill="#0C534C"></path>
  <path d="M46.4312 10.2126C46.2259 10.1047 46.1228 10.0517 45.9146 9.94957C46.5664 8.6545 46.8875 8.006 47.5433 6.71094C47.7846 6.83042 47.9042 6.89113 48.1436 7.01736L46.4312 10.2126Z" fill="#0C534C"></path>
  <path d="M48.6154 7.75347C48.8879 7.71396 49.0251 7.69662 49.2965 7.66482C49.9649 8.06182 50.2928 8.27285 50.9359 8.72477C51.0206 8.98879 51.0605 9.12081 51.1373 9.3858L49.4707 11.6233C49.2128 11.6425 49.0815 11.6541 48.8314 11.6811C48.2788 11.2956 47.9967 11.1126 47.4216 10.7714C47.3458 10.5315 47.3059 10.4111 47.2271 10.1711L48.6154 7.75347ZM50.5614 9.03023C50.0126 8.64961 49.7334 8.46942 49.1652 8.12927L47.7612 10.4284C48.2681 10.7329 48.5182 10.8938 49.0095 11.234L50.5614 9.03023ZM50.4349 8.03195C50.2471 7.90957 50.1537 7.84983 49.9649 7.73131C50.1595 7.58099 50.2568 7.50679 50.4514 7.3584C50.646 7.47981 50.7365 7.54148 50.9252 7.66675C50.7306 7.81032 50.6324 7.88356 50.4378 8.03099L50.4349 8.03195Z" fill="#0C534C"></path>
  <path d="M51.7669 14.1267C51.5937 13.9552 51.5062 13.8714 51.3291 13.7056C51.4264 13.5987 51.4828 13.5457 51.584 13.4387C51.7359 12.5442 51.8312 11.6412 51.8691 10.7349C51.2055 11.5298 50.8737 11.9268 50.2092 12.7208C50.0243 12.5696 49.9319 12.4954 49.7441 12.3489L51.9965 9.50244C52.2154 9.67203 52.3234 9.75876 52.5385 9.9351C52.4984 10.8795 52.3989 11.8205 52.2407 12.7526L53.8412 11.0798C54.0465 11.2726 54.1477 11.3689 54.3491 11.5693L51.7669 14.1267Z" fill="#0C534C"></path>
  <path d="M21.0946 57.2619C20.7949 57.1261 20.6461 57.0557 20.3493 56.9131L21.2182 55.1449C20.5235 54.8096 20.1791 54.6313 19.4999 54.2546L18.527 55.9707C18.2351 55.8098 18.0921 55.7269 17.8051 55.5593C18.4706 54.4434 18.8043 53.8855 19.4698 52.7706C20.0866 52.4681 20.3892 52.311 20.9808 51.9824C21.4848 52.259 21.7397 52.391 22.2534 52.6415C22.3166 53.3093 22.3575 53.6446 22.4538 54.3162L21.0946 57.2619ZM19.7967 53.7313C20.4632 54.1014 20.8008 54.2767 21.4828 54.6053C21.5704 54.428 21.6142 54.3394 21.7008 54.1611C21.6404 53.6793 21.6142 53.4461 21.5704 52.972C21.3826 52.8757 21.2892 52.8285 21.1034 52.7302C20.684 52.9643 20.4709 53.079 20.0399 53.3006L19.7967 53.7313Z" fill="#0C534C"></path>
  <path d="M24.889 57.7086C24.5884 57.6123 24.4386 57.5564 24.1399 57.4494L24.3685 56.8231C24.1739 56.032 24.0844 55.6359 23.9336 54.8468L22.6843 57.9302C22.3798 57.8098 22.229 57.7472 21.9274 57.62C22.6688 55.9038 23.0385 55.0453 23.776 53.3291C24.0377 53.4399 24.1652 53.4939 24.4327 53.5989C24.6108 54.6492 24.7246 55.1763 24.9844 56.2305C25.8523 55.5675 26.2687 55.2216 27.0636 54.5085C27.3341 54.5885 27.4703 54.6271 27.7446 54.7013C27.2455 56.5012 26.9974 57.3993 26.4983 59.2012C26.185 59.1155 26.0284 59.0711 25.7199 58.9796C26.1091 57.7048 26.2969 57.0669 26.6822 55.792C26.0721 56.3182 25.7559 56.5745 25.105 57.0727L24.889 57.7086Z" fill="#0C534C"></path>
  <path d="M31.3777 57.368C31.2288 57.4691 31.1539 57.5183 31.0021 57.6175L30.9885 57.7139C31.1043 57.8546 31.1627 57.9249 31.2804 58.0656L31.0664 59.591C30.7813 59.7692 30.6373 59.8569 30.3444 60.0304C29.3656 59.886 28.3946 59.6931 27.4353 59.4522C27.8848 57.6387 28.1076 56.733 28.5571 54.9233C29.5593 55.1662 30.0642 55.2673 31.08 55.4263C31.2697 55.674 31.367 55.7973 31.5665 56.043C31.4906 56.5682 31.4526 56.8351 31.3777 57.368ZM30.6353 57.3044C30.7219 56.7782 30.7647 56.5152 30.8513 55.9881C30.1528 55.8763 29.8035 55.8098 29.1107 55.6586C28.9774 56.2521 28.9113 56.5489 28.7789 57.1425L28.8451 57.1569L29.0893 57.0182C29.7062 57.1473 30.0156 57.2051 30.6353 57.3044ZM30.2909 59.4098L30.539 57.897C29.7957 57.7775 29.426 57.7043 28.6904 57.5462C28.5571 58.1446 28.49 58.4443 28.3567 59.0437C29.1263 59.2094 29.5135 59.2855 30.2909 59.4098Z" fill="#0C534C"></path>
  <path d="M32.7924 60.3232C32.4714 60.2953 32.306 60.2799 31.9907 60.2452C32.198 58.3893 32.2991 57.4623 32.5074 55.6064C32.7856 55.6373 32.9238 55.6508 33.203 55.6749C33.0376 57.5336 32.9569 58.4635 32.7924 60.3232Z" fill="#0C534C"></path>
  <path d="M34.9153 59.8505C35.8989 59.8775 36.3922 59.8746 37.3759 59.8331C37.3866 60.0721 37.3914 60.1926 37.4021 60.4325C36.2004 60.4953 34.9959 60.4853 33.7954 60.4026C33.9073 58.54 33.9618 57.6082 34.0727 55.7446C35.1139 55.8161 36.1585 55.8245 37.2007 55.7697C37.2114 56.0096 37.2163 56.1301 37.227 56.369C36.2356 56.4114 35.7394 56.4124 34.7489 56.3777L34.7003 57.7094C35.7092 57.746 36.2151 57.745 37.2251 57.7036L37.2494 58.303C36.222 58.3454 35.7063 58.3463 34.6779 58.3087C34.6536 58.9968 34.6409 59.3408 34.6156 60.0278H34.6866L34.9153 59.8505Z" fill="#0C534C"></path>
  <path d="M41.8311 59.962C41.513 60.015 41.3534 60.04 41.0343 60.0863C41.007 59.8994 40.9924 59.8049 40.9652 59.618C40.1764 58.79 39.4367 57.9174 38.7498 57.0047C38.8685 58.3297 38.9288 58.9926 39.0485 60.3176C38.7274 60.3465 38.5669 60.359 38.2448 60.3792C38.1212 58.5176 38.057 57.5848 37.9325 55.7241C38.2117 55.7058 38.3509 55.6942 38.6291 55.6702C39.2931 56.6251 40.0137 57.5402 40.7871 58.4106C40.613 57.2341 40.5254 56.6463 40.3522 55.4697C40.6285 55.4293 40.7667 55.4071 41.043 55.3608C41.3583 57.2013 41.5168 58.1215 41.8311 59.962Z" fill="#0C534C"></path>
  <path d="M41.7065 55.8528C41.6608 55.6167 41.6384 55.4992 41.5936 55.2631C42.6278 55.0811 43.6498 54.8363 44.6536 54.5298C44.7226 54.7601 44.7567 54.8757 44.8258 55.1079C44.3461 55.2496 44.1048 55.3151 43.6213 55.4365L44.6312 59.3776C44.3169 59.4566 44.1603 59.4942 43.8441 59.5703L42.9246 55.6071C42.4391 55.7111 42.1949 55.7613 41.7065 55.8528Z" fill="#0C534C"></path>
  <path d="M49.817 57.6395C49.5144 57.7677 49.3636 57.8322 49.0591 57.9498L48.3226 56.119C47.6104 56.4013 47.2523 56.5314 46.5275 56.7713C46.7795 57.5171 46.906 57.89 47.158 58.6368C46.8486 58.739 46.6929 58.7881 46.3796 58.8835C45.9904 57.6453 45.7958 57.0267 45.4125 55.7884C45.5925 55.1361 45.6742 54.8094 45.8201 54.1571C46.3562 53.9769 46.6219 53.8805 47.1502 53.6753C47.6892 54.079 47.9645 54.2756 48.5308 54.6562C49.0464 55.852 49.3033 56.4475 49.817 57.6395ZM46.3348 56.2066C47.0461 55.9706 47.3983 55.8424 48.0978 55.5659L47.913 55.1082C47.5179 54.8306 47.3292 54.689 46.94 54.4009C46.7454 54.4741 46.6481 54.5088 46.4535 54.5782C46.3562 55.0426 46.2959 55.2739 46.1762 55.7345C46.2405 55.9253 46.2716 56.0187 46.3348 56.2066Z" fill="#0C534C"></path>
  <path d="M50.6801 57.2621C49.8949 55.5652 49.5028 54.7163 48.7186 53.0223C48.9774 52.9047 49.1078 52.844 49.3647 52.7197C50.0827 54.1825 50.4417 54.9138 51.1607 56.3814C52.1755 55.8919 52.6766 55.6259 53.6583 55.0507C53.7819 55.2569 53.8441 55.36 53.9667 55.5671C52.908 56.1995 51.8103 56.7656 50.6801 57.2621Z" fill="#0C534C"></path>
</svg>
