<svg width="238" height="101" viewBox="0 0 238 101" fill="none" xmlns="http://www.w3.org/2000/svg">
<path d="M13.4956 100.232H237.331V13.9817C232.684 8.6119 230.08 5.60177 225.433 0.231934H0V84.6367L13.4825 100.217L13.4956 100.232Z" fill="white"/>
<path d="M16.0306 96.9986H233.91V54.6551H3.69997L3.92559 83.2793L16.0306 96.9986Z" fill="#00544D"/>
<path d="M222.693 3.67107H3.7V51.4913H233.91L233.58 15.4858C225.89 7.02427 233.58 15.4858 222.693 3.67107Z" fill="#C5E86C"/>
<path d="M75.3074 16.3191H88.7474V19.1991H83.6274V38.0791H80.4274V19.1991H75.3074V16.3191Z" fill="#00544D"/>
<path d="M93.3604 24.3191C93.8724 23.0391 93.8724 22.5271 97.7124 22.5271V25.4071H96.1124C93.2324 25.4071 93.2324 25.7591 93.2324 27.5191V38.0791H90.0324V22.7191H93.2324V24.3191H93.3604Z" fill="#00544D"/>
<path d="M109.395 22.7191H112.595V38.0791H109.395V36.4791H109.267C108.755 37.7591 108.755 38.2711 104.915 38.2711C100.435 38.2711 100.435 37.1191 100.435 34.2391V22.7191H103.635V33.2791C103.635 35.0391 103.635 35.3911 106.515 35.3911C109.395 35.3911 109.395 35.0391 109.395 33.2791V22.7191Z" fill="#00544D"/>
<path d="M118.664 20.3511C117.544 20.3511 116.616 19.4231 116.616 18.3031C116.616 17.1831 117.544 16.2551 118.664 16.2551C119.784 16.2551 120.712 17.1831 120.712 18.3031C120.712 19.4231 119.784 20.3511 118.664 20.3511ZM117.064 39.0391V22.7191H120.264V39.9991C120.264 43.1991 120.264 44.6711 115.464 44.6711H114.664V41.7911H115.464C117.064 41.7911 117.064 41.2791 117.064 39.0391Z" fill="#00544D"/>
<path d="M124.751 38.0791V22.7191H127.951V38.0791H124.751ZM126.351 20.3511C125.231 20.3511 124.303 19.4231 124.303 18.3031C124.303 17.1831 125.231 16.2551 126.351 16.2551C127.471 16.2551 128.399 17.1831 128.399 18.3031C128.399 19.4231 127.471 20.3511 126.351 20.3511Z" fill="#00544D"/>
<path d="M137.079 35.3911H137.879V38.2711H137.079C132.279 38.2711 132.279 37.1191 132.279 34.2391V16.3191H135.479V33.2791C135.479 35.0391 135.479 35.3911 137.079 35.3911Z" fill="#00544D"/>
<path d="M145.704 35.3911H146.504V38.2711H145.704C140.904 38.2711 140.904 37.1191 140.904 34.2391V16.3191H144.104V33.2791C144.104 35.0391 144.104 35.3911 145.704 35.3911Z" fill="#00544D"/>
<path d="M155.449 22.5271C161.529 22.5271 161.529 23.6791 161.529 26.5591V34.2391C161.529 37.1191 161.529 38.2711 155.449 38.2711C149.369 38.2711 149.369 37.1191 149.369 34.2391V26.5591C149.369 23.6791 149.369 22.5271 155.449 22.5271ZM158.329 33.2791V27.5191C158.329 25.7591 158.329 25.4071 155.449 25.4071C152.569 25.4071 152.569 25.7591 152.569 27.5191V33.2791C152.569 35.0391 152.569 35.3911 155.449 35.3911C158.329 35.3911 158.329 35.0391 158.329 33.2791Z" fill="#00544D"/>
<path d="M38.6055 64.3794C41.1255 64.3794 41.1255 64.8594 41.1255 66.0594V68.0994C41.1255 69.2994 41.1255 69.7794 38.6055 69.7794H37.2855V72.5394H36.0855V64.3794H38.6055ZM39.9255 67.7394V66.4194C39.9255 65.5794 39.9255 65.4594 38.6055 65.4594H37.2855V68.6994H38.6055C39.9255 68.6994 39.9255 68.5794 39.9255 67.7394Z" fill="white"/>
<path d="M43.814 67.3794C44.006 66.8994 44.006 66.7074 45.446 66.7074V67.7874H44.846C43.766 67.7874 43.766 67.9194 43.766 68.5794V72.5394H42.566V66.7794H43.766V67.3794H43.814Z" fill="white"/>
<path d="M48.6869 66.7074C50.9669 66.7074 50.9669 67.1394 50.9669 68.2194V71.0994C50.9669 72.1794 50.9669 72.6114 48.6869 72.6114C46.4069 72.6114 46.4069 72.1794 46.4069 71.0994V68.2194C46.4069 67.1394 46.4069 66.7074 48.6869 66.7074ZM49.7669 70.7394V68.5794C49.7669 67.9194 49.7669 67.7874 48.6869 67.7874C47.6069 67.7874 47.6069 67.9194 47.6069 68.5794V70.7394C47.6069 71.3994 47.6069 71.5314 48.6869 71.5314C49.7669 71.5314 49.7669 71.3994 49.7669 70.7394Z" fill="white"/>
<path d="M54.2669 71.5314H54.5669V72.6114H54.2669C52.4669 72.6114 52.4669 72.1794 52.4669 71.0994V64.3794H53.6669V70.7394C53.6669 71.3994 53.6669 71.5314 54.2669 71.5314Z" fill="white"/>
<path d="M57.9213 66.7074C60.2013 66.7074 60.2013 67.1394 60.2013 68.2194V71.0994C60.2013 72.1794 60.2013 72.6114 57.9213 72.6114C55.6413 72.6114 55.6413 72.1794 55.6413 71.0994V68.2194C55.6413 67.1394 55.6413 66.7074 57.9213 66.7074ZM59.0013 70.7394V68.5794C59.0013 67.9194 59.0013 67.7874 57.9213 67.7874C56.8413 67.7874 56.8413 67.9194 56.8413 68.5794V70.7394C56.8413 71.3994 56.8413 71.5314 57.9213 71.5314C59.0013 71.5314 59.0013 71.3994 59.0013 70.7394Z" fill="white"/>
<path d="M64.6413 66.7074C66.3213 66.7074 66.3213 67.1394 66.3213 68.2194V72.5394H65.1213V68.5794C65.1213 67.9194 65.1213 67.7874 64.0413 67.7874C62.9613 67.7874 62.9613 67.9194 62.9613 68.5794V72.5394H61.7613V66.7794H62.9613V67.3794H63.0093C63.2013 66.8994 63.2013 66.7074 64.6413 66.7074Z" fill="white"/>
<path d="M71.1771 66.7794H72.3771V73.2594C72.3771 74.4594 72.3771 75.0114 69.8571 75.0114H68.7771V73.9314H69.8571C71.1771 73.9314 71.1771 73.7394 71.1771 72.8994V71.9394H71.1291C70.9371 72.4194 70.9371 72.6114 69.4971 72.6114C67.8171 72.6114 67.8171 72.1794 67.8171 71.0994V68.2194C67.8171 67.1394 67.8171 66.7074 69.4971 66.7074C70.9371 66.7074 70.9371 66.8994 71.1291 67.3794H71.1771V66.7794ZM71.1771 70.7394V68.5794C71.1771 67.9194 71.1771 67.7874 70.0971 67.7874C69.0171 67.7874 69.0171 67.9194 69.0171 68.5794V70.7394C69.0171 71.3994 69.0171 71.5314 70.0971 71.5314C71.1771 71.5314 71.1771 71.3994 71.1771 70.7394Z" fill="white"/>
<path d="M76.2143 66.7074C78.4943 66.7074 78.4943 67.1394 78.4943 68.2194V72.5394H77.2943V71.9394H77.2463C77.0543 72.4194 77.0543 72.6114 75.6143 72.6114C73.9343 72.6114 73.9343 72.1794 73.9343 71.0994V69.6954L77.2943 68.8554V68.5794C77.2943 67.9194 77.2943 67.7874 76.2143 67.7874C75.1343 67.7874 75.1343 67.9194 75.1343 68.5794V68.8194H73.9343V68.2194C73.9343 67.1394 73.9343 66.7074 76.2143 66.7074ZM76.2143 71.5314C77.2943 71.5314 77.2943 71.3994 77.2943 70.7394V69.9234L75.1343 70.4634V70.7394C75.1343 71.3994 75.1343 71.5314 76.2143 71.5314Z" fill="white"/>
<path d="M84.5529 68.9394H83.3529V68.5794C83.3529 67.9194 83.3529 67.7874 82.2729 67.7874C81.1929 67.7874 81.1929 67.9194 81.1929 68.5794V70.7394C81.1929 71.3994 81.1929 71.5314 82.2729 71.5314C83.3529 71.5314 83.3529 71.3994 83.3529 70.7394V70.3794H84.5529V71.0994C84.5529 72.1794 84.5529 72.6114 82.2729 72.6114C79.9929 72.6114 79.9929 72.1794 79.9929 71.0994V68.2194C79.9929 67.1394 79.9929 66.7074 82.2729 66.7074C84.5529 66.7074 84.5529 67.1394 84.5529 68.2194V68.9394Z" fill="white"/>
<path d="M86.0543 72.5394V66.7794H87.2543V72.5394H86.0543ZM86.6543 65.8914C86.2343 65.8914 85.8863 65.5434 85.8863 65.1234C85.8863 64.7034 86.2343 64.3554 86.6543 64.3554C87.0743 64.3554 87.4223 64.7034 87.4223 65.1234C87.4223 65.5434 87.0743 65.8914 86.6543 65.8914Z" fill="white"/>
<path d="M92.5371 64.1394L91.4331 65.8194H90.4971L91.3371 64.1394H92.5371ZM91.0971 66.7074C93.3771 66.7074 93.3771 67.1394 93.3771 68.2194V71.0994C93.3771 72.1794 93.3771 72.6114 91.0971 72.6114C88.8171 72.6114 88.8171 72.1794 88.8171 71.0994V68.2194C88.8171 67.1394 88.8171 66.7074 91.0971 66.7074ZM92.1771 70.7394V68.5794C92.1771 67.9194 92.1771 67.7874 91.0971 67.7874C90.0171 67.7874 90.0171 67.9194 90.0171 68.5794V70.7394C90.0171 71.3994 90.0171 71.5314 91.0971 71.5314C92.1771 71.5314 92.1771 71.3994 92.1771 70.7394Z" fill="white"/>
<path d="M97.8171 66.7074C99.4971 66.7074 99.4971 67.1394 99.4971 68.2194V72.5394H98.2971V68.5794C98.2971 67.9194 98.2971 67.7874 97.2171 67.7874C96.1371 67.7874 96.1371 67.9194 96.1371 68.5794V72.5394H94.9371V66.7794H96.1371V67.3794H96.1851C96.3771 66.8994 96.3771 66.7074 97.8171 66.7074Z" fill="white"/>
<path d="M109.877 67.0194H108.677V66.4194C108.677 65.5794 108.677 65.3874 107.357 65.3874C106.037 65.3874 106.037 65.5794 106.037 66.4194V70.4994C106.037 71.3394 106.037 71.5314 107.357 71.5314C108.677 71.5314 108.677 71.3394 108.677 70.4994V69.8994H109.877V70.8594C109.877 72.0594 109.877 72.6114 107.357 72.6114C104.837 72.6114 104.837 72.0594 104.837 70.8594V66.0594C104.837 64.8594 104.837 64.3074 107.357 64.3074C109.877 64.3074 109.877 64.8594 109.877 66.0594V67.0194Z" fill="white"/>
<path d="M115.819 70.1754H112.459V70.7394C112.459 71.3994 112.459 71.5314 113.539 71.5314C114.619 71.5314 114.619 71.3994 114.619 70.7394V70.6194H115.819V71.0994C115.819 72.1794 115.819 72.6114 113.539 72.6114C111.259 72.6114 111.259 72.1794 111.259 71.0994V68.2194C111.259 67.1394 111.259 66.7074 113.539 66.7074C115.819 66.7074 115.819 67.1394 115.819 68.2194V70.1754ZM112.459 68.5794V69.1434H114.619V68.5794C114.619 67.9194 114.619 67.7874 113.539 67.7874C112.459 67.7874 112.459 67.9194 112.459 68.5794Z" fill="white"/>
<path d="M121.819 68.8194H120.619V68.5794C120.619 67.9194 120.619 67.7874 119.539 67.7874C118.459 67.7874 118.459 67.9194 118.459 68.5794V68.8554L121.819 69.6954V71.0994C121.819 72.1794 121.819 72.6114 119.539 72.6114C117.259 72.6114 117.259 72.1794 117.259 71.0994V70.4994H118.459V70.7394C118.459 71.3994 118.459 71.5314 119.539 71.5314C120.619 71.5314 120.619 71.3994 120.619 70.7394V70.4634L117.259 69.6234V68.2194C117.259 67.1394 117.259 66.7074 119.539 66.7074C121.819 66.7074 121.819 67.1394 121.819 68.2194V68.8194Z" fill="white"/>
<path d="M125.539 66.7074C127.819 66.7074 127.819 67.1394 127.819 68.2194V72.5394H126.619V71.9394H126.571C126.379 72.4194 126.379 72.6114 124.939 72.6114C123.259 72.6114 123.259 72.1794 123.259 71.0994V69.6954L126.619 68.8554V68.5794C126.619 67.9194 126.619 67.7874 125.539 67.7874C124.459 67.7874 124.459 67.9194 124.459 68.5794V68.8194H123.259V68.2194C123.259 67.1394 123.259 66.7074 125.539 66.7074ZM125.539 71.5314C126.619 71.5314 126.619 71.3994 126.619 70.7394V69.9234L124.459 70.4634V70.7394C124.459 71.3994 124.459 71.5314 125.539 71.5314Z" fill="white"/>
<path d="M130.685 67.3794C130.877 66.8994 130.877 66.7074 132.317 66.7074V67.7874H131.717C130.637 67.7874 130.637 67.9194 130.637 68.5794V72.5394H129.437V66.7794H130.637V67.3794H130.685Z" fill="white"/>
<path d="M141.406 64.3794H142.642L140.638 72.5394H138.646L136.642 64.3794H137.878L139.618 71.4594H139.666L141.406 64.3794Z" fill="white"/>
<path d="M145.648 66.7074C147.928 66.7074 147.928 67.1394 147.928 68.2194V72.5394H146.728V71.9394H146.68C146.488 72.4194 146.488 72.6114 145.048 72.6114C143.368 72.6114 143.368 72.1794 143.368 71.0994V69.6954L146.728 68.8554V68.5794C146.728 67.9194 146.728 67.7874 145.648 67.7874C144.568 67.7874 144.568 67.9194 144.568 68.5794V68.8194H143.368V68.2194C143.368 67.1394 143.368 66.7074 145.648 66.7074ZM145.648 71.5314C146.728 71.5314 146.728 71.3994 146.728 70.7394V69.9234L144.568 70.4634V70.7394C144.568 71.3994 144.568 71.5314 145.648 71.5314Z" fill="white"/>
<path d="M151.286 71.5314H151.586V72.6114H151.286C149.486 72.6114 149.486 72.1794 149.486 71.0994V64.3794H150.686V70.7394C150.686 71.3994 150.686 71.5314 151.286 71.5314Z" fill="white"/>
<path d="M154.521 71.5314H154.821V72.6114H154.521C152.721 72.6114 152.721 72.1794 152.721 71.0994V64.3794H153.921V70.7394C153.921 71.3994 153.921 71.5314 154.521 71.5314Z" fill="white"/>
<path d="M160.455 70.1754H157.095V70.7394C157.095 71.3994 157.095 71.5314 158.175 71.5314C159.255 71.5314 159.255 71.3994 159.255 70.7394V70.6194H160.455V71.0994C160.455 72.1794 160.455 72.6114 158.175 72.6114C155.895 72.6114 155.895 72.1794 155.895 71.0994V68.2194C155.895 67.1394 155.895 66.7074 158.175 66.7074C160.455 66.7074 160.455 67.1394 160.455 68.2194V70.1754ZM157.095 68.5794V69.1434H159.255V68.5794C159.255 67.9194 159.255 67.7874 158.175 67.7874C157.095 67.7874 157.095 67.9194 157.095 68.5794Z" fill="white"/>
<path d="M162.615 65.8914C162.195 65.8914 161.847 65.5434 161.847 65.1234C161.847 64.7034 162.195 64.3554 162.615 64.3554C163.035 64.3554 163.383 64.7034 163.383 65.1234C163.383 65.5434 163.035 65.8914 162.615 65.8914ZM162.015 72.8994V66.7794H163.215V73.2594C163.215 74.4594 163.215 75.0114 161.415 75.0114H161.115V73.9314H161.415C162.015 73.9314 162.015 73.7394 162.015 72.8994Z" fill="white"/>
<path d="M167.058 66.7074C169.338 66.7074 169.338 67.1394 169.338 68.2194V71.0994C169.338 72.1794 169.338 72.6114 167.058 72.6114C164.778 72.6114 164.778 72.1794 164.778 71.0994V68.2194C164.778 67.1394 164.778 66.7074 167.058 66.7074ZM168.138 70.7394V68.5794C168.138 67.9194 168.138 67.7874 167.058 67.7874C165.978 67.7874 165.978 67.9194 165.978 68.5794V70.7394C165.978 71.3994 165.978 71.5314 167.058 71.5314C168.138 71.5314 168.138 71.3994 168.138 70.7394Z" fill="white"/>
<path d="M177.142 64.3074C179.662 64.3074 179.662 64.8594 179.662 66.0594V70.8594C179.662 72.0594 179.662 72.6114 177.142 72.6114C174.622 72.6114 174.622 72.0594 174.622 70.8594V66.0594C174.622 64.8594 174.622 64.3074 177.142 64.3074ZM178.462 70.4994V66.4194C178.462 65.5794 178.462 65.3874 177.142 65.3874C175.822 65.3874 175.822 65.5794 175.822 66.4194V70.4994C175.822 71.3394 175.822 71.5314 177.142 71.5314C178.462 71.5314 178.462 71.3394 178.462 70.4994Z" fill="white"/>
<path d="M185.662 70.1754H182.302V70.7394C182.302 71.3994 182.302 71.5314 183.382 71.5314C184.462 71.5314 184.462 71.3994 184.462 70.7394V70.6194H185.662V71.0994C185.662 72.1794 185.662 72.6114 183.382 72.6114C181.102 72.6114 181.102 72.1794 181.102 71.0994V68.2194C181.102 67.1394 181.102 66.7074 183.382 66.7074C185.662 66.7074 185.662 67.1394 185.662 68.2194V70.1754ZM182.302 68.5794V69.1434H184.462V68.5794C184.462 67.9194 184.462 67.7874 183.382 67.7874C182.302 67.7874 182.302 67.9194 182.302 68.5794Z" fill="white"/>
<path d="M191.662 68.8194H190.462V68.5794C190.462 67.9194 190.462 67.7874 189.382 67.7874C188.302 67.7874 188.302 67.9194 188.302 68.5794V68.8554L191.662 69.6954V71.0994C191.662 72.1794 191.662 72.6114 189.382 72.6114C187.102 72.6114 187.102 72.1794 187.102 71.0994V70.4994H188.302V70.7394C188.302 71.3994 188.302 71.5314 189.382 71.5314C190.462 71.5314 190.462 71.3994 190.462 70.7394V70.4634L187.102 69.6234V68.2194C187.102 67.1394 187.102 66.7074 189.382 66.7074C191.662 66.7074 191.662 67.1394 191.662 68.2194V68.8194Z" fill="white"/>
<path d="M195.742 71.5314H196.342V72.6114H195.742C193.462 72.6114 193.462 72.1794 193.462 71.0994V67.8594H192.742V66.7794H193.462V65.8194H194.662V66.7794H196.222V67.8594H194.662V70.7394C194.662 71.3994 194.662 71.5314 195.742 71.5314Z" fill="white"/>
<path d="M201.986 70.1754H198.626V70.7394C198.626 71.3994 198.626 71.5314 199.706 71.5314C200.786 71.5314 200.786 71.3994 200.786 70.7394V70.6194H201.986V71.0994C201.986 72.1794 201.986 72.6114 199.706 72.6114C197.426 72.6114 197.426 72.1794 197.426 71.0994V68.2194C197.426 67.1394 197.426 66.7074 199.706 66.7074C201.986 66.7074 201.986 67.1394 201.986 68.2194V70.1754ZM198.626 68.5794V69.1434H200.786V68.5794C200.786 67.9194 200.786 67.7874 199.706 67.7874C198.626 67.7874 198.626 67.9194 198.626 68.5794Z" fill="white"/>
<path d="M36.8055 84.5394V77.4834H35.6055V76.3794H38.0055V84.5394H36.8055Z" fill="white"/>
<path d="M40.7632 81.7074V83.4594H44.6032V84.5394H39.5632V80.9754L43.4032 79.6914V78.4194C43.4032 77.5794 43.4032 77.3874 42.0832 77.3874C40.7632 77.3874 40.7632 77.5794 40.7632 78.4194V79.0194H39.5632V78.0594C39.5632 76.8594 39.5632 76.3074 42.0832 76.3074C44.6032 76.3074 44.6032 76.8594 44.6032 78.0594V80.4234L40.7632 81.7074Z" fill="white"/>
<path d="M48.5051 76.3074C51.0251 76.3074 51.0251 76.8594 51.0251 78.0594V82.8594C51.0251 84.0594 51.0251 84.6114 48.5051 84.6114C45.9851 84.6114 45.9851 84.0594 45.9851 82.8594V78.0594C45.9851 76.8594 45.9851 76.3074 48.5051 76.3074ZM49.8251 82.4994V78.4194C49.8251 77.5794 49.8251 77.3874 48.5051 77.3874C47.1851 77.3874 47.1851 77.5794 47.1851 78.4194V82.4994C47.1851 83.3394 47.1851 83.5314 48.5051 83.5314C49.8251 83.5314 49.8251 83.3394 49.8251 82.4994Z" fill="white"/>
<path d="M54.9855 77.3874C53.6655 77.3874 53.6655 77.5794 53.6655 78.4194V79.8594H53.7135C53.9655 79.2594 53.9655 79.0674 55.5855 79.0674C57.5055 79.0674 57.5055 79.6194 57.5055 80.8194V82.8594C57.5055 84.0594 57.5055 84.6114 54.9855 84.6114C52.4655 84.6114 52.4655 84.0594 52.4655 82.8594V78.0594C52.4655 76.8594 52.4655 76.3074 54.9855 76.3074C57.5055 76.3074 57.5055 76.8594 57.5055 78.0594V78.4194H56.3055C56.3055 77.5794 56.3055 77.3874 54.9855 77.3874ZM53.6655 81.1794V82.4994C53.6655 83.3394 53.6655 83.5314 54.9855 83.5314C56.3055 83.5314 56.3055 83.3394 56.3055 82.4994V81.1794C56.3055 80.3394 56.3055 80.1474 54.9855 80.1474C53.6655 80.1474 53.6655 80.3394 53.6655 81.1794Z" fill="white"/>
<path d="M59.0554 83.0994H60.4354L59.4154 85.4994H58.5154L59.0554 83.0994Z" fill="white"/>
<path d="M67.9816 76.3074C70.5016 76.3074 70.5016 76.8594 70.5016 78.0594V82.8594C70.5016 84.0594 70.5016 84.6114 67.9816 84.6114C65.4616 84.6114 65.4616 84.0594 65.4616 82.8594V78.0594C65.4616 76.8594 65.4616 76.3074 67.9816 76.3074ZM69.3016 82.4994V78.4194C69.3016 77.5794 69.3016 77.3874 67.9816 77.3874C66.6616 77.3874 66.6616 77.5794 66.6616 78.4194V82.4994C66.6616 83.3394 66.6616 83.5314 67.9816 83.5314C69.3016 83.5314 69.3016 83.3394 69.3016 82.4994Z" fill="white"/>
<path d="M80.0938 76.3794H82.0258V84.5394H80.8259V77.4594H80.7778L78.9659 82.0194L77.1538 77.4594H77.1059V84.5394H75.9059V76.3794H77.8379L78.9659 79.2234L80.0938 76.3794Z" fill="white"/>
<path d="M88.2105 78.7794L85.2705 83.4594H87.9705V84.5394H83.1705L86.1105 79.8594H83.4105V78.7794H88.2105Z" fill="white"/>
<path d="M91.5073 78.7074C93.7873 78.7074 93.7873 79.1394 93.7873 80.2194V84.5394H92.5873V83.9394H92.5393C92.3473 84.4194 92.3473 84.6114 90.9073 84.6114C89.2273 84.6114 89.2273 84.1794 89.2273 83.0994V81.6954L92.5873 80.8554V80.5794C92.5873 79.9194 92.5873 79.7874 91.5073 79.7874C90.4273 79.7874 90.4273 79.9194 90.4273 80.5794V80.8194H89.2273V80.2194C89.2273 79.1394 89.2273 78.7074 91.5073 78.7074ZM91.5073 83.5314C92.5873 83.5314 92.5873 83.3994 92.5873 82.7394V81.9234L90.4273 82.4634V82.7394C90.4273 83.3994 90.4273 83.5314 91.5073 83.5314Z" fill="white"/>
<path d="M95.9339 83.0754C96.3539 83.0754 96.7019 83.4234 96.7019 83.8434C96.7019 84.2634 96.3539 84.6114 95.9339 84.6114C95.5139 84.6114 95.1658 84.2634 95.1658 83.8434C95.1658 83.4234 95.5139 83.0754 95.9339 83.0754Z" fill="white"/>
<path d="M104.5 76.3794C107.02 76.3794 107.02 76.8594 107.02 78.0594V82.8594C107.02 84.0594 107.02 84.5394 104.5 84.5394H101.98V76.3794H104.5ZM105.82 82.4994V78.4194C105.82 77.5794 105.82 77.4594 104.5 77.4594H103.18V83.4594H104.5C105.82 83.4594 105.82 83.3394 105.82 82.4994Z" fill="white"/>
<path d="M113.621 83.4594H116.981V84.5394H112.421V76.3794H113.621V83.4594Z" fill="white"/>
<path d="M120.218 78.7074C122.498 78.7074 122.498 79.1394 122.498 80.2194V83.0994C122.498 84.1794 122.498 84.6114 120.218 84.6114C117.938 84.6114 117.938 84.1794 117.938 83.0994V80.2194C117.938 79.1394 117.938 78.7074 120.218 78.7074ZM121.298 82.7394V80.5794C121.298 79.9194 121.298 79.7874 120.218 79.7874C119.138 79.7874 119.138 79.9194 119.138 80.5794V82.7394C119.138 83.3994 119.138 83.5314 120.218 83.5314C121.298 83.5314 121.298 83.3994 121.298 82.7394Z" fill="white"/>
<path d="M126.578 83.5314H127.178V84.6114H126.578C124.298 84.6114 124.298 84.1794 124.298 83.0994V79.8594H123.578V78.7794H124.298V77.8194H125.498V78.7794H127.058V79.8594H125.498V82.7394C125.498 83.3994 125.498 83.5314 126.578 83.5314Z" fill="white"/>
<path d="M132.822 82.1754H129.462V82.7394C129.462 83.3994 129.462 83.5314 130.542 83.5314C131.622 83.5314 131.622 83.3994 131.622 82.7394V82.6194H132.822V83.0994C132.822 84.1794 132.822 84.6114 130.542 84.6114C128.262 84.6114 128.262 84.1794 128.262 83.0994V80.2194C128.262 79.1394 128.262 78.7074 130.542 78.7074C132.822 78.7074 132.822 79.1394 132.822 80.2194V82.1754ZM129.462 80.5794V81.1434H131.622V80.5794C131.622 79.9194 131.622 79.7874 130.542 79.7874C129.462 79.7874 129.462 79.9194 129.462 80.5794Z" fill="white"/>
<path d="M139.306 81.7074V83.4594H143.146V84.5394H138.106V80.9754L141.946 79.6914V78.4194C141.946 77.5794 141.946 77.3874 140.626 77.3874C139.306 77.3874 139.306 77.5794 139.306 78.4194V79.0194H138.106V78.0594C138.106 76.8594 138.106 76.3074 140.626 76.3074C143.146 76.3074 143.146 76.8594 143.146 78.0594V80.4234L139.306 81.7074Z" fill="white"/>
<path d="M152.272 76.3794H153.472V82.8594C153.472 84.0594 153.472 84.6114 150.952 84.6114C148.432 84.6114 148.432 84.0594 148.432 82.8594V76.3794H149.632V82.4994C149.632 83.3394 149.632 83.5314 150.952 83.5314C152.272 83.5314 152.272 83.3394 152.272 82.4994V76.3794Z" fill="white"/>
<path d="M156.337 79.3794C156.529 78.8994 156.529 78.7074 157.969 78.7074V79.7874H157.369C156.289 79.7874 156.289 79.9194 156.289 80.5794V84.5394H155.089V78.7794H156.289V79.3794H156.337Z" fill="white"/>
<path d="M161.93 78.7074C163.61 78.7074 163.61 79.1394 163.61 80.2194V83.0994C163.61 84.1794 163.61 84.6114 161.93 84.6114C160.49 84.6114 160.49 84.4194 160.298 83.9394H160.25V84.5394H159.05V76.3794H160.25V79.3794H160.298C160.49 78.8994 160.49 78.7074 161.93 78.7074ZM162.41 82.7394V80.5794C162.41 79.9194 162.41 79.7874 161.33 79.7874C160.25 79.7874 160.25 79.9194 160.25 80.5794V82.7394C160.25 83.3994 160.25 83.5314 161.33 83.5314C162.41 83.5314 162.41 83.3994 162.41 82.7394Z" fill="white"/>
<path d="M165.696 83.0754C166.116 83.0754 166.464 83.4234 166.464 83.8434C166.464 84.2634 166.116 84.6114 165.696 84.6114C165.276 84.6114 164.928 84.2634 164.928 83.8434C164.928 83.4234 165.276 83.0754 165.696 83.0754Z" fill="white"/>
<path d="M176.662 79.0194H175.462V78.4194C175.462 77.5794 175.462 77.3874 174.142 77.3874C172.822 77.3874 172.822 77.5794 172.822 78.4194V79.4514L176.662 80.7354V82.8594C176.662 84.0594 176.662 84.6114 174.142 84.6114C171.622 84.6114 171.622 84.0594 171.622 82.8594V81.8994H172.822V82.4994C172.822 83.3394 172.822 83.5314 174.142 83.5314C175.462 83.5314 175.462 83.3394 175.462 82.4994V81.4674L171.622 80.1834V78.0594C171.622 76.8594 171.622 76.3074 174.142 76.3074C176.662 76.3074 176.662 76.8594 176.662 78.0594V79.0194Z" fill="white"/>
<path d="M180.382 78.7074C182.662 78.7074 182.662 79.1394 182.662 80.2194V84.5394H181.462V83.9394H181.414C181.222 84.4194 181.222 84.6114 179.782 84.6114C178.102 84.6114 178.102 84.1794 178.102 83.0994V81.6954L181.462 80.8554V80.5794C181.462 79.9194 181.462 79.7874 180.382 79.7874C179.302 79.7874 179.302 79.9194 179.302 80.5794V80.8194H178.102V80.2194C178.102 79.1394 178.102 78.7074 180.382 78.7074ZM180.382 83.5314C181.462 83.5314 181.462 83.3994 181.462 82.7394V81.9234L179.302 82.4634V82.7394C179.302 83.3994 179.302 83.5314 180.382 83.5314Z" fill="white"/>
<path d="M187.161 78.7074C188.841 78.7074 188.841 79.1394 188.841 80.2194V84.5394H187.641V80.5794C187.641 79.9194 187.641 79.7874 186.561 79.7874C185.481 79.7874 185.481 79.9194 185.481 80.5794V84.5394H184.281V78.7794H185.481V79.3794H185.529C185.721 78.8994 185.721 78.7074 187.161 78.7074Z" fill="white"/>
<path d="M198.86 77.4594H195.5V79.9194H198.74V80.9994H195.5V83.4594H198.86V84.5394H194.3V76.3794H198.86V77.4594Z" fill="white"/>
<path d="M202.099 83.5314H202.399V84.6114H202.099C200.299 84.6114 200.299 84.1794 200.299 83.0994V76.3794H201.499V82.7394C201.499 83.3994 201.499 83.5314 202.099 83.5314Z" fill="white"/>
<path d="M205.753 78.7074C208.033 78.7074 208.033 79.1394 208.033 80.2194V83.0994C208.033 84.1794 208.033 84.6114 205.753 84.6114C203.473 84.6114 203.473 84.1794 203.473 83.0994V80.2194C203.473 79.1394 203.473 78.7074 205.753 78.7074ZM206.833 82.7394V80.5794C206.833 79.9194 206.833 79.7874 205.753 79.7874C204.673 79.7874 204.673 79.9194 204.673 80.5794V82.7394C204.673 83.3994 204.673 83.5314 205.753 83.5314C206.833 83.5314 206.833 83.3994 206.833 82.7394Z" fill="white"/>
<path d="M213.253 78.7794H214.513L211.933 86.9394H210.673L211.441 84.5394H210.805L208.993 78.7794H210.253L211.729 83.4594H211.777L213.253 78.7794Z" fill="white"/>
</svg>
