<svg width="238" height="101" viewBox="0 0 238 101" fill="none" xmlns="http://www.w3.org/2000/svg">
<path d="M13.4953 100.232H237.326V13.9817C232.679 8.6119 230.074 5.60177 225.428 0.231934H6.10352e-05V84.6367L13.4822 100.217L13.4953 100.232Z" fill="white"/>
<path d="M16.038 96.9989H233.913V54.6555H3.70765L3.93326 83.2797L16.038 96.9989Z" fill="#00544D"/>
<path d="M222.695 3.6708H3.70767V51.4911H233.913L233.318 15.4878C225.628 7.02627 233.318 15.4878 222.695 3.6708Z" fill="#C5E86C"/>
<path d="M96.5381 16.3192V38.0792H93.3381V16.3192H96.5381Z" fill="#00544D"/>
<path d="M112.866 28.4792H109.666V27.5192C109.666 25.7592 109.666 25.4072 106.786 25.4072C103.906 25.4072 103.906 25.7592 103.906 27.5192V33.2792C103.906 35.0392 103.906 35.3912 106.786 35.3912C109.666 35.3912 109.666 35.0392 109.666 33.2792V32.3192H112.866V34.2392C112.866 37.1192 112.866 38.2712 106.786 38.2712C100.706 38.2712 100.706 37.1192 100.706 34.2392V26.5592C100.706 23.6792 100.706 22.5272 106.786 22.5272C112.866 22.5272 112.866 23.6792 112.866 26.5592V28.4792Z" fill="#00544D"/>
<path d="M122.629 22.5272C128.709 22.5272 128.709 23.6792 128.709 26.5592V38.0792H125.509V36.4792H125.381C124.869 37.7592 124.869 38.2712 121.029 38.2712C116.549 38.2712 116.549 37.1192 116.549 34.2392V30.4952L125.509 28.2552V27.5192C125.509 25.7592 125.509 25.4072 122.629 25.4072C119.749 25.4072 119.749 25.7592 119.749 27.5192V28.1592H116.549V26.5592C116.549 23.6792 116.549 22.5272 122.629 22.5272ZM122.629 35.3912C125.509 35.3912 125.509 35.0392 125.509 33.2792V31.1032L119.749 32.5432V33.2792C119.749 35.0392 119.749 35.3912 122.629 35.3912Z" fill="#00544D"/>
<path d="M38.6159 64.3794C41.1359 64.3794 41.1359 64.8594 41.1359 66.0594V68.0994C41.1359 69.2994 41.1359 69.7794 38.6159 69.7794H37.2959V72.5394H36.0959V64.3794H38.6159ZM39.9359 67.7394V66.4194C39.9359 65.5794 39.9359 65.4594 38.6159 65.4594H37.2959V68.6994H38.6159C39.9359 68.6994 39.9359 68.5794 39.9359 67.7394Z" fill="white"/>
<path d="M44.7363 66.7074C47.0163 66.7074 47.0163 67.1394 47.0163 68.2194V72.5394H45.8163V71.9394H45.7683C45.5763 72.4194 45.5763 72.6114 44.1363 72.6114C42.4563 72.6114 42.4563 72.1794 42.4563 71.0994V69.6954L45.8163 68.8554V68.5794C45.8163 67.9194 45.8163 67.7874 44.7363 67.7874C43.6563 67.7874 43.6563 67.9194 43.6563 68.5794V68.8194H42.4563V68.2194C42.4563 67.1394 42.4563 66.7074 44.7363 66.7074ZM44.7363 71.5314C45.8163 71.5314 45.8163 71.3994 45.8163 70.7394V69.9234L43.6563 70.4634V70.7394C43.6563 71.3994 43.6563 71.5314 44.7363 71.5314Z" fill="white"/>
<path d="M51.5149 66.7074C53.1949 66.7074 53.1949 67.1394 53.1949 68.2194V72.5394H51.9949V68.5794C51.9949 67.9194 51.9949 67.7874 50.9149 67.7874C49.8349 67.7874 49.8349 67.9194 49.8349 68.5794V72.5394H48.6349V66.7794H49.8349V67.3794H49.8829C50.0749 66.8994 50.0749 66.7074 51.5149 66.7074Z" fill="white"/>
<path d="M56.9707 66.7074C59.2507 66.7074 59.2507 67.1394 59.2507 68.2194V72.5394H58.0507V71.9394H58.0027C57.8107 72.4194 57.8107 72.6114 56.3707 72.6114C54.6907 72.6114 54.6907 72.1794 54.6907 71.0994V69.6954L58.0507 68.8554V68.5794C58.0507 67.9194 58.0507 67.7874 56.9707 67.7874C55.8907 67.7874 55.8907 67.9194 55.8907 68.5794V68.8194H54.6907V68.2194C54.6907 67.1394 54.6907 66.7074 56.9707 66.7074ZM56.9707 71.5314C58.0507 71.5314 58.0507 71.3994 58.0507 70.7394V69.9234L55.8907 70.4634V70.7394C55.8907 71.3994 55.8907 71.5314 56.9707 71.5314Z" fill="white"/>
<path d="M67.1093 66.7074C68.7893 66.7074 68.7893 67.1394 68.7893 68.2194V72.5394H67.5893V68.5794C67.5893 67.9194 67.5893 67.7874 66.5093 67.7874C65.4293 67.7874 65.4293 67.9194 65.4293 68.5794V72.5394H64.2293V68.5794C64.2293 67.9194 64.2293 67.7874 63.1493 67.7874C62.0693 67.7874 62.0693 67.9194 62.0693 68.5794V72.5394H60.8693V66.7794H62.0693V67.3794H62.1173C62.3093 66.8994 62.3093 66.7074 63.7493 66.7074C64.9373 66.7074 65.2853 66.9234 65.3933 67.4394H65.4413C65.6093 66.8994 65.6093 66.7074 67.1093 66.7074Z" fill="white"/>
<path d="M74.8484 70.1754H71.4884V70.7394C71.4884 71.3994 71.4884 71.5314 72.5684 71.5314C73.6484 71.5314 73.6484 71.3994 73.6484 70.7394V70.6194H74.8484V71.0994C74.8484 72.1794 74.8484 72.6114 72.5684 72.6114C70.2884 72.6114 70.2884 72.1794 70.2884 71.0994V68.2194C70.2884 67.1394 70.2884 66.7074 72.5684 66.7074C74.8484 66.7074 74.8484 67.1394 74.8484 68.2194V70.1754ZM71.4884 68.5794V69.1434H73.6484V68.5794C73.6484 67.9194 73.6484 67.7874 72.5684 67.7874C71.4884 67.7874 71.4884 67.9194 71.4884 68.5794Z" fill="white"/>
<path d="M77.6564 67.3794C77.8484 66.8994 77.8484 66.7074 79.2884 66.7074V67.7874H78.6884C77.6084 67.7874 77.6084 67.9194 77.6084 68.5794V72.5394H76.4084V66.7794H77.6084V67.3794H77.6564Z" fill="white"/>
<path d="M80.3693 72.5394V66.7794H81.5693V72.5394H80.3693ZM80.9693 65.8914C80.5493 65.8914 80.2013 65.5434 80.2013 65.1234C80.2013 64.7034 80.5493 64.3554 80.9693 64.3554C81.3893 64.3554 81.7373 64.7034 81.7373 65.1234C81.7373 65.5434 81.3893 65.8914 80.9693 65.8914Z" fill="white"/>
<path d="M87.6921 68.9394H86.4921V68.5794C86.4921 67.9194 86.4921 67.7874 85.4121 67.7874C84.3321 67.7874 84.3321 67.9194 84.3321 68.5794V70.7394C84.3321 71.3994 84.3321 71.5314 85.4121 71.5314C86.4921 71.5314 86.4921 71.3994 86.4921 70.7394V70.3794H87.6921V71.0994C87.6921 72.1794 87.6921 72.6114 85.4121 72.6114C83.1321 72.6114 83.1321 72.1794 83.1321 71.0994V68.2194C83.1321 67.1394 83.1321 66.7074 85.4121 66.7074C87.6921 66.7074 87.6921 67.1394 87.6921 68.2194V68.9394Z" fill="white"/>
<path d="M91.3535 66.7074C93.6335 66.7074 93.6335 67.1394 93.6335 68.2194V72.5394H92.4335V71.9394H92.3855C92.1935 72.4194 92.1935 72.6114 90.7535 72.6114C89.0735 72.6114 89.0735 72.1794 89.0735 71.0994V69.6954L92.4335 68.8554V68.5794C92.4335 67.9194 92.4335 67.7874 91.3535 67.7874C90.2735 67.7874 90.2735 67.9194 90.2735 68.5794V68.8194H89.0735V68.2194C89.0735 67.1394 89.0735 66.7074 91.3535 66.7074ZM91.3535 71.5314C92.4335 71.5314 92.4335 71.3994 92.4335 70.7394V69.9234L90.2735 70.4634V70.7394C90.2735 71.3994 90.2735 71.5314 91.3535 71.5314Z" fill="white"/>
<path d="M98.1321 66.7074C99.8121 66.7074 99.8121 67.1394 99.8121 68.2194V72.5394H98.6121V68.5794C98.6121 67.9194 98.6121 67.7874 97.5321 67.7874C96.4521 67.7874 96.4521 67.9194 96.4521 68.5794V72.5394H95.2521V66.7794H96.4521V67.3794H96.5001C96.6921 66.8994 96.6921 66.7074 98.1321 66.7074Z" fill="white"/>
<path d="M103.588 66.7074C105.868 66.7074 105.868 67.1394 105.868 68.2194V72.5394H104.668V71.9394H104.62C104.428 72.4194 104.428 72.6114 102.988 72.6114C101.308 72.6114 101.308 72.1794 101.308 71.0994V69.6954L104.668 68.8554V68.5794C104.668 67.9194 104.668 67.7874 103.588 67.7874C102.508 67.7874 102.508 67.9194 102.508 68.5794V68.8194H101.308V68.2194C101.308 67.1394 101.308 66.7074 103.588 66.7074ZM103.588 71.5314C104.668 71.5314 104.668 71.3994 104.668 70.7394V69.9234L102.508 70.4634V70.7394C102.508 71.3994 102.508 71.5314 103.588 71.5314Z" fill="white"/>
<path d="M116.25 67.0194H115.05V66.4194C115.05 65.5794 115.05 65.3874 113.73 65.3874C112.41 65.3874 112.41 65.5794 112.41 66.4194V67.4514L116.25 68.7354V70.8594C116.25 72.0594 116.25 72.6114 113.73 72.6114C111.21 72.6114 111.21 72.0594 111.21 70.8594V69.8994H112.41V70.4994C112.41 71.3394 112.41 71.5314 113.73 71.5314C115.05 71.5314 115.05 71.3394 115.05 70.4994V69.4674L111.21 68.1834V66.0594C111.21 64.8594 111.21 64.3074 113.73 64.3074C116.25 64.3074 116.25 64.8594 116.25 66.0594V67.0194Z" fill="white"/>
<path d="M121.111 66.7794H122.311V72.5394H121.111V71.9394H121.063C120.871 72.4194 120.871 72.6114 119.431 72.6114C117.751 72.6114 117.751 72.1794 117.751 71.0994V66.7794H118.951V70.7394C118.951 71.3994 118.951 71.5314 120.031 71.5314C121.111 71.5314 121.111 71.3994 121.111 70.7394V66.7794Z" fill="white"/>
<path d="M125.234 67.3794C125.426 66.8994 125.426 66.7074 126.866 66.7074V67.7874H126.266C125.186 67.7874 125.186 67.9194 125.186 68.5794V72.5394H123.986V66.7794H125.186V67.3794H125.234Z" fill="white"/>
<path d="M137.311 64.3794L135.403 68.4594L137.311 72.5394H135.991L134.335 68.9994H132.991V72.5394H131.791V64.3794H132.991V67.9194H134.335L135.991 64.3794H137.311Z" fill="white"/>
<path d="M144.746 66.7074C146.426 66.7074 146.426 67.1394 146.426 68.2194V72.5394H145.226V68.5794C145.226 67.9194 145.226 67.7874 144.146 67.7874C143.066 67.7874 143.066 67.9194 143.066 68.5794V72.5394H141.866V68.5794C141.866 67.9194 141.866 67.7874 140.786 67.7874C139.706 67.7874 139.706 67.9194 139.706 68.5794V72.5394H138.506V66.7794H139.706V67.3794H139.754C139.946 66.8994 139.946 66.7074 141.386 66.7074C142.574 66.7074 142.922 66.9234 143.03 67.4394H143.078C143.246 66.8994 143.246 66.7074 144.746 66.7074Z" fill="white"/>
<path d="M148.573 71.0754C148.993 71.0754 149.341 71.4234 149.341 71.8434C149.341 72.2634 148.993 72.6114 148.573 72.6114C148.153 72.6114 147.805 72.2634 147.805 71.8434C147.805 71.4234 148.153 71.0754 148.573 71.0754Z" fill="white"/>
<path d="M155.699 69.7074V71.4594H159.539V72.5394H154.499V68.9754L158.339 67.6914V66.4194C158.339 65.5794 158.339 65.3874 157.019 65.3874C155.699 65.3874 155.699 65.5794 155.699 66.4194V67.0194H154.499V66.0594C154.499 64.8594 154.499 64.3074 157.019 64.3074C159.539 64.3074 159.539 64.8594 159.539 66.0594V68.4234L155.699 69.7074Z" fill="white"/>
<path d="M163.381 64.3074C165.901 64.3074 165.901 64.8594 165.901 66.0594V70.8594C165.901 72.0594 165.901 72.6114 163.381 72.6114C160.861 72.6114 160.861 72.0594 160.861 70.8594V70.4994H162.061C162.061 71.3394 162.061 71.5314 163.381 71.5314C164.701 71.5314 164.701 71.3394 164.701 70.4994V69.0594H164.653C164.401 69.6594 164.401 69.8514 162.781 69.8514C160.861 69.8514 160.861 69.2994 160.861 68.0994V66.0594C160.861 64.8594 160.861 64.3074 163.381 64.3074ZM164.701 67.7394V66.4194C164.701 65.5794 164.701 65.3874 163.381 65.3874C162.061 65.3874 162.061 65.5794 162.061 66.4194V67.7394C162.061 68.5794 162.061 68.7714 163.381 68.7714C164.701 68.7714 164.701 68.5794 164.701 67.7394Z" fill="white"/>
<path d="M169.923 67.3794C172.443 67.3794 172.443 67.8594 172.443 69.0594V70.8594C172.443 72.0594 172.443 72.6114 169.923 72.6114C167.403 72.6114 167.403 72.0594 167.403 70.8594V69.8994H168.603V70.4994C168.603 71.3394 168.603 71.5314 169.923 71.5314C171.243 71.5314 171.243 71.3394 171.243 70.4994V69.4194C171.243 68.5794 171.243 68.4594 169.923 68.4594H167.403V64.3794H172.323V65.4594H168.603V67.3794H169.923Z" fill="white"/>
<path d="M40.6559 77.4594H37.2959V79.9194H40.5359V80.9994H37.2959V83.4594H40.6559V84.5394H36.0959V76.3794H40.6559V77.4594Z" fill="white"/>
<path d="M43.8945 83.5314H44.1945V84.6114H43.8945C42.0945 84.6114 42.0945 84.1794 42.0945 83.0994V76.3794H43.2945V82.7394C43.2945 83.3994 43.2945 83.5314 43.8945 83.5314Z" fill="white"/>
<path d="M53.6726 80.9394H52.4726V80.5794C52.4726 79.9194 52.4726 79.7874 51.3926 79.7874C50.3126 79.7874 50.3126 79.9194 50.3126 80.5794V82.7394C50.3126 83.3994 50.3126 83.5314 51.3926 83.5314C52.4726 83.5314 52.4726 83.3994 52.4726 82.7394V82.3794H53.6726V83.0994C53.6726 84.1794 53.6726 84.6114 51.3926 84.6114C49.1126 84.6114 49.1126 84.1794 49.1126 83.0994V80.2194C49.1126 79.1394 49.1126 78.7074 51.3926 78.7074C53.6726 78.7074 53.6726 79.1394 53.6726 80.2194V80.9394Z" fill="white"/>
<path d="M57.334 78.7074C59.614 78.7074 59.614 79.1394 59.614 80.2194V84.5394H58.414V83.9394H58.366C58.174 84.4194 58.174 84.6114 56.734 84.6114C55.054 84.6114 55.054 84.1794 55.054 83.0994V81.6954L58.414 80.8554V80.5794C58.414 79.9194 58.414 79.7874 57.334 79.7874C56.254 79.7874 56.254 79.9194 56.254 80.5794V80.8194H55.054V80.2194C55.054 79.1394 55.054 78.7074 57.334 78.7074ZM57.334 83.5314C58.414 83.5314 58.414 83.3994 58.414 82.7394V81.9234L56.254 82.4634V82.7394C56.254 83.3994 56.254 83.5314 57.334 83.5314Z" fill="white"/>
<path d="M67.4726 78.7074C69.1526 78.7074 69.1526 79.1394 69.1526 80.2194V84.5394H67.9526V80.5794C67.9526 79.9194 67.9526 79.7874 66.8726 79.7874C65.7926 79.7874 65.7926 79.9194 65.7926 80.5794V84.5394H64.5926V80.5794C64.5926 79.9194 64.5926 79.7874 63.5126 79.7874C62.4326 79.7874 62.4326 79.9194 62.4326 80.5794V84.5394H61.2326V78.7794H62.4326V79.3794H62.4806C62.6726 78.8994 62.6726 78.7074 64.1126 78.7074C65.3006 78.7074 65.6486 78.9234 65.7566 79.4394H65.8046C65.9726 78.8994 65.9726 78.7074 67.4726 78.7074Z" fill="white"/>
<path d="M73.6516 78.7074C75.3316 78.7074 75.3316 79.1394 75.3316 80.2194V83.0994C75.3316 84.1794 75.3316 84.6114 73.6516 84.6114C72.2116 84.6114 72.2117 84.4194 72.0197 83.9394H71.9716V84.5394H70.7717V76.3794H71.9716V79.3794H72.0197C72.2117 78.8994 72.2116 78.7074 73.6516 78.7074ZM74.1317 82.7394V80.5794C74.1317 79.9194 74.1317 79.7874 73.0517 79.7874C71.9717 79.7874 71.9716 79.9194 71.9716 80.5794V82.7394C71.9716 83.3994 71.9717 83.5314 73.0517 83.5314C74.1317 83.5314 74.1317 83.3994 74.1317 82.7394Z" fill="white"/>
<path d="M76.8888 84.5394V78.7794H78.0888V84.5394H76.8888ZM77.4888 77.8914C77.0688 77.8914 76.7208 77.5434 76.7208 77.1234C76.7208 76.7034 77.0688 76.3554 77.4888 76.3554C77.9088 76.3554 78.2568 76.7034 78.2568 77.1234C78.2568 77.5434 77.9088 77.8914 77.4888 77.8914Z" fill="white"/>
<path d="M81.9316 78.7074C84.2116 78.7074 84.2117 79.1394 84.2117 80.2194V83.0994C84.2117 84.1794 84.2116 84.6114 81.9316 84.6114C79.6516 84.6114 79.6516 84.1794 79.6516 83.0994V80.2194C79.6516 79.1394 79.6516 78.7074 81.9316 78.7074ZM83.0117 82.7394V80.5794C83.0117 79.9194 83.0116 79.7874 81.9316 79.7874C80.8516 79.7874 80.8517 79.9194 80.8517 80.5794V82.7394C80.8517 83.3994 80.8516 83.5314 81.9316 83.5314C83.0116 83.5314 83.0117 83.3994 83.0117 82.7394Z" fill="white"/>
<path d="M93.8034 76.3794H95.7354V84.5394H94.5354V77.4594H94.4874L92.6754 82.0194L90.8634 77.4594H90.8154V84.5394H89.6154V76.3794H91.5474L92.6754 79.2234L93.8034 76.3794Z" fill="white"/>
<path d="M99.5801 78.7074C101.86 78.7074 101.86 79.1394 101.86 80.2194V84.5394H100.66V83.9394H100.612C100.42 84.4194 100.42 84.6114 98.9801 84.6114C97.3001 84.6114 97.3001 84.1794 97.3001 83.0994V81.6954L100.66 80.8554V80.5794C100.66 79.9194 100.66 79.7874 99.5801 79.7874C98.5001 79.7874 98.5001 79.9194 98.5001 80.5794V80.8194H97.3001V80.2194C97.3001 79.1394 97.3001 78.7074 99.5801 78.7074ZM99.5801 83.5314C100.66 83.5314 100.66 83.3994 100.66 82.7394V81.9234L98.5001 82.4634V82.7394C98.5001 83.3994 98.5001 83.5314 99.5801 83.5314Z" fill="white"/>
<path d="M107.919 80.9394H106.719V80.5794C106.719 79.9194 106.719 79.7874 105.639 79.7874C104.559 79.7874 104.559 79.9194 104.559 80.5794V82.7394C104.559 83.3994 104.559 83.5314 105.639 83.5314C106.719 83.5314 106.719 83.3994 106.719 82.7394V82.3794H107.919V83.0994C107.919 84.1794 107.919 84.6114 105.639 84.6114C103.359 84.6114 103.359 84.1794 103.359 83.0994V80.2194C103.359 79.1394 103.359 78.7074 105.639 78.7074C107.919 78.7074 107.919 79.1394 107.919 80.2194V80.9394Z" fill="white"/>
<path d="M111.58 78.7074C113.86 78.7074 113.86 79.1394 113.86 80.2194V84.5394H112.66V83.9394H112.612C112.42 84.4194 112.42 84.6114 110.98 84.6114C109.3 84.6114 109.3 84.1794 109.3 83.0994V81.6954L112.66 80.8554V80.5794C112.66 79.9194 112.66 79.7874 111.58 79.7874C110.5 79.7874 110.5 79.9194 110.5 80.5794V80.8194H109.3V80.2194C109.3 79.1394 109.3 78.7074 111.58 78.7074ZM111.58 83.5314C112.66 83.5314 112.66 83.3994 112.66 82.7394V81.9234L110.5 82.4634V82.7394C110.5 83.3994 110.5 83.5314 111.58 83.5314Z" fill="white"/>
<path d="M119.919 80.9394H118.719V80.5794C118.719 79.9194 118.719 79.7874 117.639 79.7874C116.559 79.7874 116.559 79.9194 116.559 80.5794V82.7394C116.559 83.3994 116.559 83.5314 117.639 83.5314C118.719 83.5314 118.719 83.3994 118.719 82.7394V82.3794H119.919V83.0994C119.919 84.1794 119.919 84.6114 117.639 84.6114C115.359 84.6114 115.359 84.1794 115.359 83.0994V80.2194C115.359 79.1394 115.359 78.7074 117.639 78.7074C119.919 78.7074 119.919 79.1394 119.919 80.2194V80.9394Z" fill="white"/>
<path d="M123.58 78.7074C125.86 78.7074 125.86 79.1394 125.86 80.2194V83.0994C125.86 84.1794 125.86 84.6114 123.58 84.6114C121.3 84.6114 121.3 84.1794 121.3 83.0994V80.2194C121.3 79.1394 121.3 78.7074 123.58 78.7074ZM124.66 82.7394V80.5794C124.66 79.9194 124.66 79.7874 123.58 79.7874C122.5 79.7874 122.5 79.9194 122.5 80.5794V82.7394C122.5 83.3994 122.5 83.5314 123.58 83.5314C124.66 83.5314 124.66 83.3994 124.66 82.7394Z" fill="white"/>
<path d="M130.3 78.7074C131.98 78.7074 131.98 79.1394 131.98 80.2194V84.5394H130.78V80.5794C130.78 79.9194 130.78 79.7874 129.7 79.7874C128.62 79.7874 128.62 79.9194 128.62 80.5794V84.5394H127.42V78.7794H128.62V79.3794H128.668C128.86 78.8994 128.86 78.7074 130.3 78.7074Z" fill="white"/>
<path d="M135.756 78.7074C138.036 78.7074 138.036 79.1394 138.036 80.2194V84.5394H136.836V83.9394H136.788C136.596 84.4194 136.596 84.6114 135.156 84.6114C133.476 84.6114 133.476 84.1794 133.476 83.0994V81.6954L136.836 80.8554V80.5794C136.836 79.9194 136.836 79.7874 135.756 79.7874C134.676 79.7874 134.676 79.9194 134.676 80.5794V80.8194H133.476V80.2194C133.476 79.1394 133.476 78.7074 135.756 78.7074ZM135.756 83.5314C136.836 83.5314 136.836 83.3994 136.836 82.7394V81.9234L134.676 82.4634V82.7394C134.676 83.3994 134.676 83.5314 135.756 83.5314Z" fill="white"/>
<path d="M148.418 79.0194H147.218V78.4194C147.218 77.5794 147.218 77.3874 145.898 77.3874C144.578 77.3874 144.578 77.5794 144.578 78.4194V79.4514L148.418 80.7354V82.8594C148.418 84.0594 148.418 84.6114 145.898 84.6114C143.378 84.6114 143.378 84.0594 143.378 82.8594V81.8994H144.578V82.4994C144.578 83.3394 144.578 83.5314 145.898 83.5314C147.218 83.5314 147.218 83.3394 147.218 82.4994V81.4674L143.378 80.1834V78.0594C143.378 76.8594 143.378 76.3074 145.898 76.3074C148.418 76.3074 148.418 76.8594 148.418 78.0594V79.0194Z" fill="white"/>
<path d="M153.279 78.7794H154.479V84.5394H153.279V83.9394H153.231C153.039 84.4194 153.039 84.6114 151.599 84.6114C149.919 84.6114 149.919 84.1794 149.919 83.0994V78.7794H151.119V82.7394C151.119 83.3994 151.119 83.5314 152.199 83.5314C153.279 83.5314 153.279 83.3994 153.279 82.7394V78.7794Z" fill="white"/>
<path d="M159.034 78.7074C160.714 78.7074 160.714 79.1394 160.714 80.2194V83.0994C160.714 84.1794 160.714 84.6114 159.034 84.6114C157.594 84.6114 157.594 84.4194 157.402 83.9394H157.354V84.5394H156.154V76.3794H157.354V79.3794H157.402C157.594 78.8994 157.594 78.7074 159.034 78.7074ZM159.514 82.7394V80.5794C159.514 79.9194 159.514 79.7874 158.434 79.7874C157.354 79.7874 157.354 79.9194 157.354 80.5794V82.7394C157.354 83.3994 157.354 83.5314 158.434 83.5314C159.514 83.5314 159.514 83.3994 159.514 82.7394Z" fill="white"/>
<path d="M164.792 83.5314H165.392V84.6114H164.792C162.512 84.6114 162.512 84.1794 162.512 83.0994V79.8594H161.792V78.7794H162.512V77.8194H163.712V78.7794H165.272V79.8594H163.712V82.7394C163.712 83.3994 163.712 83.5314 164.792 83.5314Z" fill="white"/>
<path d="M168.756 78.7074C171.036 78.7074 171.036 79.1394 171.036 80.2194V84.5394H169.836V83.9394H169.788C169.596 84.4194 169.596 84.6114 168.156 84.6114C166.476 84.6114 166.476 84.1794 166.476 83.0994V81.6954L169.836 80.8554V80.5794C169.836 79.9194 169.836 79.7874 168.756 79.7874C167.676 79.7874 167.676 79.9194 167.676 80.5794V80.8194H166.476V80.2194C166.476 79.1394 166.476 78.7074 168.756 78.7074ZM168.756 83.5314C169.836 83.5314 169.836 83.3994 169.836 82.7394V81.9234L167.676 82.4634V82.7394C167.676 83.3994 167.676 83.5314 168.756 83.5314Z" fill="white"/>
<path d="M175.534 78.7074C177.214 78.7074 177.214 79.1394 177.214 80.2194V84.5394H176.014V80.5794C176.014 79.9194 176.014 79.7874 174.934 79.7874C173.854 79.7874 173.854 79.9194 173.854 80.5794V84.5394H172.654V78.7794H173.854V79.3794H173.902C174.094 78.8994 174.094 78.7074 175.534 78.7074Z" fill="white"/>
<path d="M179.43 77.8914C179.01 77.8914 178.662 77.5434 178.662 77.1234C178.662 76.7034 179.01 76.3554 179.43 76.3554C179.85 76.3554 180.198 76.7034 180.198 77.1234C180.198 77.5434 179.85 77.8914 179.43 77.8914ZM178.83 84.8994V78.7794H180.03V85.2594C180.03 86.4594 180.03 87.0114 178.23 87.0114H177.93V85.9314H178.23C178.83 85.9314 178.83 85.7394 178.83 84.8994Z" fill="white"/>
<path d="M183.873 78.7074C186.153 78.7074 186.153 79.1394 186.153 80.2194V84.5394H184.953V83.9394H184.905C184.713 84.4194 184.713 84.6114 183.273 84.6114C181.593 84.6114 181.593 84.1794 181.593 83.0994V81.6954L184.953 80.8554V80.5794C184.953 79.9194 184.953 79.7874 183.873 79.7874C182.793 79.7874 182.793 79.9194 182.793 80.5794V80.8194H181.593V80.2194C181.593 79.1394 181.593 78.7074 183.873 78.7074ZM183.873 83.5314C184.953 83.5314 184.953 83.3994 184.953 82.7394V81.9234L182.793 82.4634V82.7394C182.793 83.3994 182.793 83.5314 183.873 83.5314Z" fill="white"/>
<path d="M189.512 83.5314H189.812V84.6114H189.512C187.712 84.6114 187.712 84.1794 187.712 83.0994V76.3794H188.912V82.7394C188.912 83.3994 188.912 83.5314 189.512 83.5314Z" fill="white"/>
<path d="M192.746 83.5314H193.046V84.6114H192.746C190.946 84.6114 190.946 84.1794 190.946 83.0994V76.3794H192.146V82.7394C192.146 83.3994 192.146 83.5314 192.746 83.5314Z" fill="white"/>
<path d="M196.4 78.7074C198.68 78.7074 198.68 79.1394 198.68 80.2194V84.5394H197.48V83.9394H197.432C197.24 84.4194 197.24 84.6114 195.8 84.6114C194.12 84.6114 194.12 84.1794 194.12 83.0994V81.6954L197.48 80.8554V80.5794C197.48 79.9194 197.48 79.7874 196.4 79.7874C195.32 79.7874 195.32 79.9194 195.32 80.5794V80.8194H194.12V80.2194C194.12 79.1394 194.12 78.7074 196.4 78.7074ZM196.4 83.5314C197.48 83.5314 197.48 83.3994 197.48 82.7394V81.9234L195.32 82.4634V82.7394C195.32 83.3994 195.32 83.5314 196.4 83.5314Z" fill="white"/>
</svg>
